<svg xmlns="http://www.w3.org/2000/svg" width="72" height="27" viewBox="0 0 72 27" fill="none">
    <path d="M0.275848 3.65798C0.275848 2.8861 0.478498 2.24064 0.885613 1.72222C1.29212 1.2038 1.90128 0.944895 2.7143 0.944895H11.6757C12.5086 0.944895 13.113 1.19896 13.4892 1.7071C13.8649 2.21524 14.053 2.85525 14.053 3.62774C14.053 4.40023 13.8649 5.05052 13.4892 5.57862C13.113 6.10733 12.5086 6.37107 11.6757 6.37107H3.90298C3.63863 6.37107 3.43537 6.43701 3.29321 6.56949C3.15106 6.70197 3.12021 6.89978 3.20187 7.16413H11.6454C12.2957 7.16413 12.6206 7.4793 12.6206 8.10902C12.6206 8.73875 12.2951 9.05392 11.6454 9.05392H4.14676C4.34941 9.37937 4.56295 9.60258 4.78677 9.72478C5.00999 9.84697 5.34573 9.90747 5.79276 9.90747H12.0416C13.0373 9.90747 13.7584 10.1718 14.2061 10.6999C14.6531 11.2286 14.8769 11.9394 14.8769 12.8335C14.8769 13.7276 14.6531 14.4238 14.2061 14.9822C13.759 15.5411 13.0373 15.8206 12.0416 15.8206H6.61607C5.5387 15.8206 4.55872 15.653 3.67432 15.3179C2.79052 14.9828 2.07853 14.4547 1.54075 13.733C1.00236 13.0119 0.712604 12.0822 0.672074 10.9437C0.651507 10.1107 0.757974 9.41506 0.99208 8.8555C1.22558 8.29655 1.49477 7.85495 1.79965 7.5295C2.10454 7.20466 2.33804 6.99112 2.50076 6.88949L2.19588 6.37107C1.68774 6.30998 1.2407 6.03111 0.854762 5.53265C0.468819 5.03479 0.275848 4.40991 0.275848 3.65798ZM3.01918 19.6002C3.01918 18.7061 3.29321 18.005 3.84188 17.4969C4.39055 16.9893 5.15275 16.7346 6.12789 16.7346H18.6861C19.9662 16.7346 20.9213 17.0347 21.5517 17.6336C22.1814 18.233 22.4966 19.0412 22.4966 20.0569C22.4966 20.8088 22.4863 21.4591 22.4663 22.0078C22.4457 22.5564 22.3949 23.1868 22.3139 23.8976C22.2322 24.9338 21.9074 25.6452 21.3387 26.0311C20.7695 26.4171 19.977 26.5901 18.9614 26.5496C17.9657 26.4885 17.2894 26.1836 16.9343 25.6349C16.5786 25.0862 16.3802 24.436 16.3396 23.684C16.3191 23.2376 16.2223 22.9376 16.0499 22.7851C15.8769 22.6327 15.5871 22.5564 15.1812 22.5564H6.15874C5.16304 22.5564 4.39055 22.2927 3.84188 21.764C3.29321 21.2359 3.01918 20.5142 3.01918 19.5996V19.6002ZM19.5705 16.0033C18.6964 16.0033 17.9705 15.7395 17.391 15.2108C16.8121 14.6827 16.5223 14.0325 16.5223 13.26V3.17041C16.5223 2.33743 16.797 1.66173 17.3456 1.14331C17.8943 0.62489 18.6359 0.365982 19.5705 0.365982C20.5051 0.365982 21.2014 0.630334 21.7192 1.15843C22.2377 1.68714 22.4966 2.37796 22.4966 3.23091V13.2594C22.4966 14.0318 22.2268 14.6821 21.689 15.2102C21.1506 15.7389 20.444 16.0027 19.5705 16.0027V16.0033Z" fill="#F9FAFC"/>
    <path d="M23.5026 3.59689C23.5026 2.8861 23.6852 2.26605 24.0512 1.73735C24.4172 1.20925 24.9755 0.944895 25.7275 0.944895H32.1899C33.1245 0.944895 33.77 1.20925 34.1256 1.73735C34.4807 2.26605 34.6592 2.88549 34.6592 3.59689C34.6592 4.30828 34.4807 4.93317 34.1256 5.47155C33.77 6.00993 33.1245 6.27912 32.1899 6.27912H27.313C27.0486 6.27912 26.82 6.35051 26.627 6.49266C26.4334 6.63482 26.3778 6.86893 26.4594 7.19377H32.1899C32.5758 7.19377 32.865 7.25487 33.0586 7.37646C33.2515 7.49865 33.3483 7.74244 33.3483 8.10781C33.3483 8.45383 33.2515 8.68673 33.0586 8.80892C32.865 8.93112 32.5655 8.99161 32.159 8.99161H27.2513C27.434 9.27653 27.6626 9.50519 27.9373 9.67759C28.2119 9.8506 28.5924 9.9365 29.0806 9.9365H32.3726C33.3477 9.9365 34.0645 10.1803 34.5219 10.6679C34.9792 11.1554 35.2079 11.8469 35.2079 12.7403C35.2079 13.6338 34.9792 14.3053 34.5219 14.8128C34.0645 15.3209 33.3483 15.575 32.3726 15.575H29.7817C28.7043 15.575 27.7189 15.4177 26.8248 15.1026C25.9301 14.788 25.2193 14.2847 24.6912 13.5939C24.1625 12.9031 23.8988 11.9987 23.8988 10.8808C23.8988 10.0883 24.0101 9.42837 24.2339 8.89966C24.4571 8.37156 24.7166 7.93964 25.0112 7.60391C25.3058 7.26878 25.5448 7.00927 25.7275 6.82658L25.4226 6.27791C24.8328 6.27791 24.3658 6.00872 24.0204 5.47034C23.6744 4.93196 23.502 4.30707 23.502 3.59568L23.5026 3.59689ZM26.7946 19.4169C26.7946 18.5022 27.0638 17.7763 27.6021 17.2373C28.1405 16.699 28.8979 16.4298 29.873 16.4298H42.5535C43.8335 16.4298 44.7832 16.7601 45.4033 17.4206C46.0227 18.0812 46.333 19.011 46.333 20.2099C46.333 20.9413 46.3179 21.5613 46.2871 22.0695C46.2568 22.5776 46.1903 23.2176 46.0886 23.9901C45.987 24.8636 45.6973 25.5448 45.22 26.0323C44.7421 26.5199 43.9956 26.7335 42.9793 26.6724C41.8614 26.6312 41.1246 26.3221 40.7695 25.7426C40.4138 25.1637 40.2463 24.5188 40.2668 23.8068C40.2868 23.3398 40.1955 22.9993 39.9922 22.7857C39.789 22.5722 39.4133 22.4657 38.8646 22.4657H29.9027C28.907 22.4657 28.1393 22.1868 27.6015 21.6273C27.0631 21.0683 26.794 20.3315 26.794 19.4175L26.7946 19.4169ZM38.4999 15.6071C37.7685 15.6071 37.1739 15.399 36.7165 14.9822C36.2592 14.566 36.0306 14.0427 36.0306 13.4124V2.83529C36.0306 2.18499 36.2489 1.65205 36.6857 1.23526C37.1224 0.819071 37.7268 0.610372 38.4993 0.610372C39.21 0.610372 39.7744 0.819071 40.1912 1.23526C40.6074 1.65205 40.8161 2.20616 40.8161 2.89638V6.73705H41.1821C41.4458 6.73705 41.5783 6.61486 41.5783 6.37107V2.71309C41.5783 2.02227 41.8015 1.45848 42.2492 1.02112C42.6956 0.58436 43.3163 0.365982 44.1087 0.365982C44.9012 0.365982 45.4801 0.58436 45.9072 1.02112C46.3336 1.45848 46.5472 2.03195 46.5472 2.74334V13.6253C46.5472 14.2756 46.3185 14.8195 45.8612 15.2562C45.4039 15.6936 44.8195 15.9113 44.1087 15.9113C43.3568 15.9113 42.747 15.693 42.28 15.2562C41.8124 14.8195 41.5789 14.2762 41.5789 13.6253V8.65709H40.8167V13.4426C40.8167 14.073 40.6032 14.5908 40.1767 14.9973C39.7502 15.4038 39.1907 15.6071 38.5005 15.6071H38.4999Z" fill="#F9FAFC"/>
    <path d="M53.8008 11.4313C52.3375 11.4313 51.2353 11.081 50.4937 10.3799C49.7515 9.67882 49.3812 8.74904 49.3812 7.59061C49.3812 6.75763 49.5839 6.0414 49.991 5.44192C50.3975 4.84304 50.7629 4.46194 51.0883 4.29861V4.26836C50.6207 4.26836 50.2094 4.08568 49.8537 3.7197C49.498 3.35372 49.3201 2.88672 49.3201 2.31748C49.3201 1.74825 49.4925 1.24071 49.8386 0.854167C50.184 0.468224 50.6715 0.275253 51.3019 0.275253H65.9943C66.7256 0.275253 67.264 0.468829 67.61 0.854167C67.9555 1.24071 68.1285 1.72828 68.1285 2.31748C68.1285 2.90668 67.9555 3.35916 67.61 3.73482C67.264 4.11108 66.7263 4.29861 65.9943 4.29861H53.1003C52.5516 4.29861 52.3484 4.53272 52.4906 4.99972H66.451C66.9791 4.99972 67.2435 5.2435 67.2435 5.73107C67.2435 6.21864 66.9791 6.49328 66.451 6.49328H53.1608C53.283 6.69653 53.4246 6.8641 53.5873 6.99597C53.7494 7.12845 53.9938 7.19439 54.3186 7.19439H66.2677C67.9337 7.19439 68.7673 7.8955 68.7673 9.29771C68.7673 9.96857 68.564 10.4918 68.1575 10.8675C67.751 11.2438 67.1213 11.4313 66.2677 11.4313H60.5675V11.4615C60.5675 12.1524 60.9432 12.4978 61.6951 12.4978H69.4986C70.1489 12.4978 70.6825 12.7113 71.0987 13.1378C71.5148 13.5642 71.7235 14.1438 71.7235 14.8751C71.7235 15.6065 71.5148 16.1963 71.0987 16.6433C70.6819 17.0904 70.1483 17.3136 69.4986 17.3136H49.1066C48.4763 17.3136 47.9276 17.1 47.4606 16.6736C46.993 16.2471 46.7595 15.6476 46.7595 14.8751C46.7595 14.1026 46.993 13.514 47.4606 13.1069C47.9276 12.7004 48.5071 12.4972 49.1979 12.4972H57.2755V11.4301H53.8008V11.4313ZM49.2288 20.6975C49.2288 19.8645 49.4575 19.2294 49.9148 18.7926C50.3721 18.3559 51.0986 18.1375 52.0943 18.1375H65.1407C66.3397 18.1375 67.2441 18.3764 67.8538 18.8537C68.4636 19.3316 68.7782 19.9771 68.7987 20.7895C68.8393 21.4803 68.8393 22.029 68.7987 22.4355C68.7576 22.842 68.7171 23.3096 68.6765 23.8377C68.5749 24.8334 68.2851 25.5545 67.8079 26.0021C67.33 26.4492 66.6343 26.673 65.7197 26.673C64.9677 26.673 64.312 26.5054 63.7536 26.1703C63.1947 25.8352 62.9152 25.2913 62.9152 24.5394V24.1432C62.9152 23.8794 62.839 23.681 62.6866 23.5485C62.5341 23.4167 62.2546 23.3501 61.8481 23.3501H52.0937C51.098 23.3501 50.3715 23.1118 49.9142 22.6339C49.4569 22.1566 49.2282 21.5111 49.2282 20.6981L49.2288 20.6975Z" fill="#F9FAFC"/>
    <path d="M19.2445 26.8309C19.1489 26.8309 19.0503 26.829 18.9505 26.8248C17.861 26.7583 17.1073 26.4086 16.7032 25.7849C16.3227 25.1982 16.1079 24.4964 16.065 23.6992C16.0426 23.2152 15.9319 23.0483 15.8678 22.9914C15.7855 22.9188 15.5992 22.8317 15.1812 22.8317H6.15873C5.09345 22.8317 4.25019 22.5389 3.65131 21.9618C3.04941 21.3823 2.74393 20.5874 2.74393 19.5996C2.74393 18.6117 3.05062 17.8544 3.65494 17.2942C4.25382 16.7401 5.08619 16.4588 6.12788 16.4588H18.6861C20.0327 16.4588 21.0605 16.7867 21.741 17.4339C22.4252 18.0855 22.7718 18.9674 22.7718 20.0569C22.7718 20.8004 22.7615 21.4603 22.7409 22.0181C22.7204 22.5686 22.6689 23.2098 22.5873 23.9242C22.499 25.0403 22.1306 25.8261 21.4924 26.2592C20.9328 26.6385 20.1761 26.8309 19.2433 26.8309H19.2445ZM19.5705 16.2785C18.6299 16.2785 17.8338 15.9876 17.2053 15.4141C16.5695 14.834 16.2471 14.1093 16.2471 13.26V3.17042C16.2471 2.26243 16.5532 1.51292 17.1563 0.943084C17.7551 0.377479 18.5676 0.090744 19.5705 0.090744C20.5735 0.090744 21.3466 0.385343 21.9158 0.966071C22.4838 1.54559 22.7718 2.30779 22.7718 3.23152V13.26C22.7718 14.105 22.4723 14.8273 21.8813 15.4074C21.2921 15.9858 20.5148 16.2785 19.5699 16.2785H19.5705ZM6.61605 16.0959C5.51085 16.0959 4.48792 15.9204 3.57691 15.575C2.64653 15.2223 1.88735 14.6573 1.31993 13.8969C0.749487 13.1335 0.43916 12.1433 0.396816 10.9528C0.375643 10.0817 0.489974 9.34126 0.737993 8.74904C0.982988 8.16347 1.27214 7.68921 1.5988 7.34077C1.81053 7.11513 1.98898 6.94152 2.1384 6.8163L2.02467 6.62273C1.49959 6.52231 1.0332 6.21259 0.636971 5.70142C0.214733 5.15699 -1.52588e-05 4.4698 -1.52588e-05 3.65799C-1.52588e-05 2.84618 0.225622 2.11785 0.669032 1.55224C1.12817 0.966676 1.81597 0.669657 2.71428 0.669657H11.6756C12.5963 0.669657 13.2811 0.963651 13.7106 1.54317C14.1208 2.09789 14.3288 2.79899 14.3288 3.62774C14.3288 4.45649 14.122 5.16486 13.7142 5.73832C13.2853 6.34083 12.5994 6.64632 11.6762 6.64632H3.90296C3.71181 6.64632 3.56965 6.68806 3.48072 6.77093C3.46742 6.78364 3.43656 6.81207 3.43293 6.88829H11.6454C12.4518 6.88829 12.8964 7.32141 12.8964 8.10842C12.8964 8.89543 12.4524 9.32855 11.6454 9.32855H4.71235C4.78071 9.39328 4.84967 9.4447 4.91863 9.48221C5.04385 9.55056 5.29671 9.63162 5.79275 9.63162H12.0416C13.1172 9.63162 13.9157 9.93106 14.416 10.5215C14.9041 11.0992 15.1515 11.8771 15.1515 12.8329C15.1515 13.7887 14.9059 14.5472 14.4208 15.154C13.9211 15.7789 13.1208 16.0959 12.0416 16.0959H6.61605Z" fill="#F1F2F2"/>
    <path d="M43.309 26.9573C43.1989 26.9573 43.084 26.9537 42.9672 26.947C41.7586 26.9022 40.9401 26.5453 40.536 25.886C40.1537 25.2635 39.9704 24.5606 39.9928 23.7984C40.0097 23.407 39.9426 23.1311 39.7944 22.9751C39.6928 22.868 39.4484 22.7403 38.8658 22.7403H29.9039C28.8343 22.7403 27.9935 22.43 27.4043 21.8178C26.8175 21.2093 26.5193 20.4011 26.5193 19.4169C26.5193 18.4327 26.8181 17.6324 27.4079 17.0426C27.9977 16.4534 28.8271 16.1539 29.8736 16.1539H42.5541C43.9067 16.1539 44.9332 16.5163 45.6047 17.2313C46.2713 17.9415 46.6089 18.9432 46.6089 20.2087C46.6089 20.9425 46.5931 21.5741 46.5629 22.0846C46.532 22.5952 46.4649 23.2479 46.3627 24.0246C46.2544 24.9526 45.9362 25.6936 45.4178 26.2235C44.9411 26.7099 44.2321 26.9567 43.309 26.9567V26.9573ZM44.1081 16.1872C43.2872 16.1872 42.6085 15.9416 42.0913 15.4577C41.568 14.9695 41.3031 14.3531 41.3031 13.6259V8.93293H41.0919V13.4433C41.0919 14.1486 40.8476 14.739 40.3666 15.1975C39.8894 15.6524 39.2614 15.8829 38.5004 15.8829C37.7013 15.8829 37.0389 15.6482 36.532 15.186C36.0172 14.7172 35.7565 14.1208 35.7565 13.413V2.83528C35.7565 2.10998 36.0057 1.50445 36.4975 1.03563C36.9857 0.570444 37.6596 0.334523 38.5011 0.334523C39.2838 0.334523 39.919 0.571654 40.3872 1.03987C40.8554 1.50868 41.0926 2.13297 41.0926 2.89578V6.46121H41.1833C41.2553 6.46121 41.2879 6.44729 41.294 6.44245C41.294 6.44245 41.3043 6.42491 41.3043 6.37047V2.71248C41.3043 1.94786 41.5577 1.31269 42.058 0.823908C42.5559 0.336943 43.2467 0.0901337 44.1099 0.0901337C44.9731 0.0901337 45.6265 0.338758 46.105 0.828142C46.5816 1.31692 46.8236 1.96056 46.8236 2.74273V13.6247C46.8236 14.35 46.5641 14.9658 46.0523 15.4546C45.5448 15.9398 44.8909 16.186 44.1093 16.186L44.1081 16.1872ZM29.7817 15.8521C28.6777 15.8521 27.6517 15.6881 26.7334 15.3639C25.7922 15.0324 25.0312 14.494 24.4722 13.7627C23.909 13.0265 23.6229 12.0574 23.6229 10.8826C23.6229 10.0563 23.7433 9.35335 23.9798 8.7938C24.2139 8.2409 24.491 7.77994 24.8037 7.42364C25.0276 7.16897 25.2229 6.95422 25.3863 6.78242L25.2562 6.54831C24.6465 6.50113 24.1528 6.18959 23.7881 5.62036C23.4154 5.04024 23.2261 4.3597 23.2261 3.59688C23.2261 2.83407 23.4269 2.15414 23.8238 1.58067C24.2424 0.975744 24.8824 0.669652 25.7268 0.669652H32.1893C33.2164 0.669652 33.9448 0.976954 34.3531 1.58369C34.7384 2.15716 34.9332 2.83407 34.9332 3.59688C34.9332 4.3597 34.7384 5.04145 34.3543 5.62338C33.946 6.24162 33.2176 6.55497 32.1887 6.55497H27.3118C27.1061 6.55497 26.9355 6.60699 26.7891 6.71467C26.7613 6.73524 26.7002 6.78 26.6971 6.91853H32.1887C32.6315 6.91853 32.9636 6.99233 33.2043 7.14356C33.482 7.31899 33.6223 7.64323 33.6223 8.10781C33.6223 8.57239 33.482 8.86639 33.2043 9.04182C32.9636 9.19365 32.6212 9.26745 32.1578 9.26745H27.8447C27.9191 9.33279 27.9989 9.39207 28.0824 9.4447C28.3111 9.58867 28.6462 9.66186 29.0787 9.66186H32.3707C33.4209 9.66186 34.2115 9.93711 34.7209 10.4803C35.2254 11.0187 35.4813 11.7791 35.4813 12.7415C35.4813 13.704 35.2266 14.4414 34.7245 14.9985C34.2152 15.5647 33.4233 15.8515 32.3707 15.8515H29.7798L29.7817 15.8521Z" fill="#F1F2F2"/>
    <path d="M65.7197 26.947C64.9206 26.947 64.2116 26.7643 63.6121 26.405C62.9673 26.0184 62.64 25.3899 62.64 24.5382V24.142C62.64 23.9599 62.5964 23.8334 62.5063 23.7554C62.4609 23.7167 62.3061 23.6247 61.8487 23.6247H52.0943C51.0248 23.6247 50.2251 23.3549 49.7158 22.8232C49.21 22.2951 48.9536 21.5801 48.9536 20.6975C48.9536 19.8149 49.2131 19.0824 49.7242 18.5936C50.2324 18.1078 51.0297 17.8616 52.0937 17.8616H65.1401C66.396 17.8616 67.3657 18.1223 68.0226 18.6365C68.6959 19.164 69.0492 19.8845 69.0728 20.7774C69.1139 21.4779 69.1133 22.0447 69.0716 22.4621C69.0316 22.8583 68.9911 23.3277 68.95 23.8582V23.8655C68.8411 24.9241 68.5199 25.7105 67.9948 26.2023C67.4661 26.6966 66.7002 26.9476 65.7185 26.9476L65.7197 26.947ZM49.1072 17.5894C48.4091 17.5894 47.7927 17.3499 47.2755 16.8774C46.751 16.3989 46.4849 15.725 46.4849 14.8757C46.4849 14.0264 46.7528 13.3592 47.2803 12.9C47.7969 12.4506 48.4424 12.2225 49.1986 12.2225H57.0009V11.7065H53.8014C52.2722 11.7065 51.0962 11.3272 50.305 10.5795C49.5095 9.82822 49.106 8.82223 49.106 7.5906C49.106 6.70499 49.3268 5.93008 49.763 5.28705C50.0043 4.93135 50.2318 4.64885 50.4501 4.43592C50.1616 4.33368 49.896 4.15826 49.6559 3.91145C49.2506 3.49465 49.0449 2.95808 49.0449 2.31747C49.0449 1.67685 49.2427 1.10701 49.6335 0.670862C50.0321 0.225637 50.5935 0 51.3019 0H65.9943C66.8037 0 67.4159 0.225637 67.8151 0.670862C68.2059 1.10762 68.4037 1.66173 68.4037 2.31807C68.4037 2.97442 68.2047 3.49526 67.8127 3.92173C67.4147 4.35486 66.8031 4.57444 65.9943 4.57444H53.1003C52.8813 4.57444 52.7712 4.618 52.741 4.65913C52.7301 4.67365 52.7241 4.69603 52.7222 4.72447H66.4516C67.1303 4.72447 67.5193 5.09165 67.5193 5.73167C67.5193 6.37168 67.1303 6.76911 66.4516 6.76911H53.7452C53.7506 6.77395 53.7561 6.77819 53.7615 6.78303C53.8716 6.87255 54.064 6.91974 54.3199 6.91974H66.2689C68.5622 6.91974 69.0437 8.21307 69.0437 9.2983C69.0437 10.0454 68.809 10.6418 68.3456 11.0701C67.8889 11.493 67.1896 11.7071 66.2689 11.7071H60.8663C60.9402 12.0664 61.2003 12.2231 61.6963 12.2231H69.4998C70.2239 12.2231 70.8289 12.4663 71.2971 12.946C71.7635 13.4245 72 14.0736 72 14.8757C72 15.6778 71.7647 16.3336 71.3013 16.8314C70.8325 17.3347 70.2264 17.5894 69.4998 17.5894H49.1078H49.1072Z" fill="#F1F2F2"/>
    <path d="M0.413757 3.52067C0.413757 2.74878 0.616407 2.10333 1.02352 1.5849C1.43003 1.06648 2.03919 0.807576 2.85221 0.807576H11.8136C12.6466 0.807576 13.2509 1.06164 13.6271 1.56978C14.0028 2.07792 14.1909 2.71793 14.1909 3.49042C14.1909 4.26291 14.0028 4.9132 13.6271 5.4413C13.2509 5.97001 12.6466 6.23375 11.8136 6.23375H4.04089C3.77654 6.23375 3.57328 6.29969 3.43112 6.43217C3.28897 6.56465 3.25812 6.76246 3.33978 7.02681H11.7833C12.4336 7.02681 12.7585 7.34198 12.7585 7.9717C12.7585 8.60143 12.433 8.9166 11.7833 8.9166H4.28467C4.48732 9.24205 4.70086 9.46526 4.92468 9.58746C5.1479 9.70965 5.48363 9.77015 5.93067 9.77015H12.1795C13.1753 9.77015 13.8963 10.0345 14.344 10.5626C14.791 11.0913 15.0148 11.8021 15.0148 12.6962C15.0148 13.5902 14.791 14.2865 14.344 14.8449C13.8969 15.4038 13.1753 15.6833 12.1795 15.6833H6.75398C5.67661 15.6833 4.69663 15.5157 3.81223 15.1806C2.92843 14.8455 2.21643 14.3174 1.67866 13.5957C1.14027 12.8746 0.850513 11.9449 0.809983 10.8064C0.789416 9.9734 0.895883 9.27774 1.12999 8.71818C1.36349 8.15923 1.63268 7.71764 1.93756 7.39219C2.24245 7.06734 2.47595 6.8538 2.63867 6.75217L2.33379 6.23375C1.82565 6.17266 1.37861 5.89379 0.992671 5.39533C0.606124 4.89747 0.413757 4.27259 0.413757 3.52067ZM3.15709 19.4623C3.15709 18.5682 3.43112 17.8671 3.97979 17.3589C4.52846 16.8514 5.29066 16.5967 6.2658 16.5967H18.824C20.1041 16.5967 21.0592 16.8968 21.6896 17.4956C22.3193 18.0951 22.6345 18.9033 22.6345 19.919C22.6345 20.6709 22.6242 21.3212 22.6042 21.8699C22.5837 22.4185 22.5328 23.0489 22.4518 23.7596C22.3701 24.7959 22.0453 25.5073 21.4766 25.8932C20.9074 26.2792 20.115 26.4522 19.0993 26.4116C18.1036 26.3505 17.4273 26.0457 17.0722 25.497C16.7165 24.9483 16.5181 24.298 16.4775 23.5461C16.457 23.0997 16.3602 22.7996 16.1878 22.6472C16.0148 22.4947 15.725 22.4185 15.3191 22.4185H6.29665C5.30095 22.4185 4.52846 22.1548 3.97979 21.6261C3.43112 21.098 3.15709 20.3763 3.15709 19.4616V19.4623ZM19.7084 15.8654C18.8343 15.8654 18.1084 15.6016 17.5289 15.0729C16.95 14.5448 16.6602 13.8945 16.6602 13.122V3.03249C16.6602 2.19951 16.9349 1.52381 17.4835 1.00539C18.0322 0.486966 18.7738 0.228058 19.7084 0.228058C20.6431 0.228058 21.3393 0.49241 21.8571 1.02051C22.3756 1.54921 22.6345 2.24004 22.6345 3.09298V13.1214C22.6345 13.8939 22.3647 14.5442 21.8269 15.0723C21.2885 15.601 20.582 15.8648 19.7084 15.8648V15.8654Z" fill="url(#paint0_linear_160_5918)"/>
    <path d="M23.6405 3.45957C23.6405 2.74878 23.8232 2.12873 24.1891 1.60003C24.5551 1.07193 25.1135 0.807576 25.8654 0.807576H32.3278C33.2624 0.807576 33.9079 1.07193 34.2636 1.60003C34.6186 2.12873 34.7971 2.74818 34.7971 3.45957C34.7971 4.17096 34.6186 4.79585 34.2636 5.33423C33.9079 5.87261 33.2624 6.14181 32.3278 6.14181H27.4509C27.1865 6.14181 26.9579 6.21319 26.7649 6.35534C26.5713 6.4975 26.5157 6.73161 26.5973 7.05645H32.3278C32.7137 7.05645 33.0029 7.11755 33.1965 7.23914C33.3894 7.36133 33.4862 7.60512 33.4862 7.97049C33.4862 8.31651 33.3894 8.54941 33.1965 8.6716C33.0029 8.7938 32.7035 8.85429 32.2969 8.85429H27.3892C27.5719 9.13921 27.8005 9.36787 28.0752 9.54028C28.3498 9.71328 28.7303 9.79918 29.2185 9.79918H32.5105C33.4856 9.79918 34.2025 10.043 34.6598 10.5305C35.1171 11.0181 35.3458 11.7095 35.3458 12.603C35.3458 13.4965 35.1171 14.168 34.6598 14.6755C34.2025 15.1836 33.4862 15.4377 32.5105 15.4377H29.9196C28.8422 15.4377 27.8568 15.2804 26.9627 14.9652C26.068 14.6507 25.3572 14.1474 24.8291 13.4566C24.3004 12.7657 24.0367 11.8614 24.0367 10.7435C24.0367 9.95102 24.148 9.29105 24.3718 8.76234C24.595 8.23424 24.8546 7.80233 25.1491 7.46659C25.4437 7.13146 25.6827 6.87195 25.8654 6.68926L25.5605 6.1406C24.9707 6.1406 24.5037 5.8714 24.1583 5.33302C23.8123 4.79464 23.6399 4.16975 23.6399 3.45836L23.6405 3.45957ZM26.9325 19.2796C26.9325 18.3649 27.2017 17.639 27.74 17.1C28.2784 16.5616 29.0358 16.2924 30.0109 16.2924H42.6914C43.9714 16.2924 44.9211 16.6227 45.5412 17.2833C46.1606 17.9439 46.4709 18.8737 46.4709 20.0726C46.4709 20.804 46.4558 21.424 46.425 21.9322C46.3947 22.4403 46.3282 23.0803 46.2266 23.8528C46.1249 24.7263 45.8352 25.4075 45.3579 25.895C44.88 26.3826 44.1335 26.5961 43.1172 26.535C41.9993 26.4939 41.2625 26.1848 40.9074 25.6053C40.5518 25.0264 40.3842 24.3815 40.4048 23.6695C40.4247 23.2025 40.3334 22.8619 40.1301 22.6484C39.9269 22.4349 39.5512 22.3284 39.0025 22.3284H30.0406C29.0449 22.3284 28.2772 22.0495 27.7394 21.49C27.2011 20.931 26.9319 20.1942 26.9319 19.2802L26.9325 19.2796ZM38.6372 15.4691C37.9058 15.4691 37.3112 15.2611 36.8538 14.8443C36.3965 14.4281 36.1679 13.9048 36.1679 13.2745V2.69736C36.1679 2.04707 36.3862 1.51413 36.823 1.09734C37.2597 0.681147 37.8641 0.472448 38.6366 0.472448C39.3473 0.472448 39.9117 0.681147 40.3285 1.09734C40.7447 1.51413 40.9534 2.06824 40.9534 2.75846V6.59913H41.3194C41.5831 6.59913 41.7156 6.47693 41.7156 6.23315V2.57517C41.7156 1.88434 41.9388 1.32055 42.3865 0.883192C42.8329 0.446436 43.4536 0.228058 44.246 0.228058C45.0385 0.228058 45.6174 0.446436 46.0445 0.883192C46.4709 1.32055 46.6845 1.89402 46.6845 2.60541V13.4874C46.6845 14.1377 46.4558 14.6815 45.9985 15.1183C45.5412 15.5557 44.9568 15.7734 44.246 15.7734C43.4941 15.7734 42.8843 15.555 42.4173 15.1183C41.9497 14.6815 41.7162 14.1383 41.7162 13.4874V8.51916H40.954V13.3047C40.954 13.9351 40.7405 14.4529 40.314 14.8594C39.8875 15.2659 39.328 15.4691 38.6378 15.4691H38.6372Z" fill="url(#paint1_linear_160_5918)"/>
    <path d="M53.9387 11.2933C52.4754 11.2933 51.3733 10.9431 50.6316 10.242C49.8894 9.54088 49.5192 8.61111 49.5192 7.45267C49.5192 6.61969 49.7218 5.90346 50.1289 5.30398C50.5354 4.7051 50.9008 4.324 51.2263 4.16067V4.13042C50.7587 4.13042 50.3473 3.94774 49.9916 3.58176C49.6359 3.21578 49.4581 2.74878 49.4581 2.17954C49.4581 1.61031 49.6305 1.10277 49.9765 0.716227C50.3219 0.330285 50.8095 0.137314 51.4398 0.137314H66.1322C66.8636 0.137314 67.402 0.33089 67.748 0.716227C68.0934 1.10277 68.2664 1.59034 68.2664 2.17954C68.2664 2.76874 68.0934 3.22122 67.748 3.59688C67.402 3.97314 66.8642 4.16067 66.1322 4.16067H53.2382C52.6896 4.16067 52.4863 4.39478 52.6285 4.86178H66.5889C67.117 4.86178 67.3814 5.10556 67.3814 5.59313C67.3814 6.0807 67.117 6.35534 66.5889 6.35534H53.2987C53.4209 6.55859 53.5625 6.72616 53.7252 6.85803C53.8873 6.99051 54.1317 7.05645 54.4566 7.05645H66.4056C68.0716 7.05645 68.9052 7.75756 68.9052 9.15977C68.9052 9.83064 68.7019 10.3539 68.2954 10.7296C67.8889 11.1058 67.2592 11.2933 66.4056 11.2933H60.7054V11.3236C60.7054 12.0144 61.0811 12.3598 61.833 12.3598H69.6365C70.2868 12.3598 70.8204 12.5734 71.2366 12.9998C71.6528 13.4263 71.8615 14.0058 71.8615 14.7372C71.8615 15.4685 71.6528 16.0583 71.2366 16.5054C70.8198 16.9524 70.2862 17.1756 69.6365 17.1756H49.2445C48.6142 17.1756 48.0655 16.9621 47.5985 16.5356C47.1309 16.1092 46.8974 15.5097 46.8974 14.7372C46.8974 13.9647 47.1309 13.3761 47.5985 12.969C48.0655 12.5625 48.645 12.3592 49.3359 12.3592H57.4134V11.2921H53.9387V11.2933ZM49.3667 20.5596C49.3667 19.7266 49.5954 19.0914 50.0527 18.6547C50.51 18.2179 51.2365 17.9995 52.2322 17.9995H65.2787C66.4776 17.9995 67.382 18.2385 67.9918 18.7158C68.6015 19.1937 68.9161 19.8391 68.9367 20.6515C68.9772 21.3424 68.9772 21.891 68.9367 22.2975C68.8955 22.704 68.855 23.1717 68.8145 23.6998C68.7128 24.6955 68.4231 25.4165 67.9458 25.8642C67.4679 26.3112 66.7722 26.535 65.8576 26.535C65.1057 26.535 64.4499 26.3675 63.8916 26.0323C63.3326 25.6972 63.0531 25.1534 63.0531 24.4015V24.0052C63.0531 23.7415 62.9769 23.5431 62.8245 23.4106C62.672 23.2787 62.3926 23.2122 61.9861 23.2122H52.2316C51.2359 23.2122 50.5094 22.9738 50.0521 22.496C49.5948 22.0187 49.3661 21.3732 49.3661 20.5602L49.3667 20.5596Z" fill="url(#paint2_linear_160_5918)"/>
    <path d="M0.275848 3.65798C0.275848 2.8861 0.478498 2.24064 0.885613 1.72222C1.29212 1.2038 1.90128 0.944895 2.7143 0.944895H11.6757C12.5086 0.944895 13.113 1.19896 13.4892 1.7071C13.8649 2.21524 14.053 2.85525 14.053 3.62774C14.053 4.40023 13.8649 5.05052 13.4892 5.57862C13.113 6.10733 12.5086 6.37107 11.6757 6.37107H3.90298C3.63863 6.37107 3.43537 6.43701 3.29321 6.56949C3.15106 6.70197 3.12021 6.89978 3.20187 7.16413H11.6454C12.2957 7.16413 12.6206 7.4793 12.6206 8.10902C12.6206 8.73875 12.2951 9.05392 11.6454 9.05392H4.14676C4.34941 9.37937 4.56295 9.60258 4.78677 9.72478C5.00999 9.84697 5.34573 9.90747 5.79276 9.90747H12.0416C13.0373 9.90747 13.7584 10.1718 14.2061 10.6999C14.6531 11.2286 14.8769 11.9394 14.8769 12.8335C14.8769 13.7276 14.6531 14.4238 14.2061 14.9822C13.759 15.5411 13.0373 15.8206 12.0416 15.8206H6.61607C5.5387 15.8206 4.55872 15.653 3.67432 15.3179C2.79052 14.9828 2.07853 14.4547 1.54075 13.733C1.00236 13.0119 0.712604 12.0822 0.672074 10.9437C0.651507 10.1107 0.757974 9.41506 0.99208 8.8555C1.22558 8.29655 1.49477 7.85495 1.79965 7.5295C2.10454 7.20466 2.33804 6.99112 2.50076 6.88949L2.19588 6.37107C1.68774 6.30998 1.2407 6.03111 0.854762 5.53265C0.468819 5.03479 0.275848 4.40991 0.275848 3.65798ZM3.01918 19.6002C3.01918 18.7061 3.29321 18.005 3.84188 17.4969C4.39055 16.9893 5.15275 16.7346 6.12789 16.7346H18.6861C19.9662 16.7346 20.9213 17.0347 21.5517 17.6336C22.1814 18.233 22.4966 19.0412 22.4966 20.0569C22.4966 20.8088 22.4863 21.4591 22.4663 22.0078C22.4457 22.5564 22.3949 23.1868 22.3139 23.8976C22.2322 24.9338 21.9074 25.6452 21.3387 26.0311C20.7695 26.4171 19.977 26.5901 18.9614 26.5496C17.9657 26.4885 17.2894 26.1836 16.9343 25.6349C16.5786 25.0862 16.3802 24.436 16.3396 23.684C16.3191 23.2376 16.2223 22.9376 16.0499 22.7851C15.8769 22.6327 15.5871 22.5564 15.1812 22.5564H6.15874C5.16304 22.5564 4.39055 22.2927 3.84188 21.764C3.29321 21.2359 3.01918 20.5142 3.01918 19.5996V19.6002ZM19.5705 16.0033C18.6964 16.0033 17.9705 15.7395 17.391 15.2108C16.8121 14.6827 16.5223 14.0325 16.5223 13.26V3.17041C16.5223 2.33743 16.797 1.66173 17.3456 1.14331C17.8943 0.62489 18.6359 0.365982 19.5705 0.365982C20.5051 0.365982 21.2014 0.630334 21.7192 1.15843C22.2377 1.68714 22.4966 2.37796 22.4966 3.23091V13.2594C22.4966 14.0318 22.2268 14.6821 21.689 15.2102C21.1506 15.7389 20.444 16.0027 19.5705 16.0027V16.0033Z" fill="white"/>
    <path d="M23.5026 3.59689C23.5026 2.8861 23.6852 2.26605 24.0512 1.73735C24.4172 1.20925 24.9755 0.944895 25.7275 0.944895H32.1899C33.1245 0.944895 33.77 1.20925 34.1256 1.73735C34.4807 2.26605 34.6592 2.88549 34.6592 3.59689C34.6592 4.30828 34.4807 4.93317 34.1256 5.47155C33.77 6.00993 33.1245 6.27912 32.1899 6.27912H27.313C27.0486 6.27912 26.82 6.35051 26.627 6.49266C26.4334 6.63482 26.3778 6.86893 26.4594 7.19377H32.1899C32.5758 7.19377 32.865 7.25487 33.0586 7.37646C33.2515 7.49865 33.3483 7.74244 33.3483 8.10781C33.3483 8.45383 33.2515 8.68673 33.0586 8.80892C32.865 8.93112 32.5655 8.99161 32.159 8.99161H27.2513C27.434 9.27653 27.6626 9.50519 27.9373 9.67759C28.2119 9.8506 28.5924 9.9365 29.0806 9.9365H32.3726C33.3477 9.9365 34.0645 10.1803 34.5219 10.6679C34.9792 11.1554 35.2079 11.8469 35.2079 12.7403C35.2079 13.6338 34.9792 14.3053 34.5219 14.8128C34.0645 15.3209 33.3483 15.575 32.3726 15.575H29.7817C28.7043 15.575 27.7189 15.4177 26.8248 15.1026C25.9301 14.788 25.2193 14.2847 24.6912 13.5939C24.1625 12.9031 23.8988 11.9987 23.8988 10.8808C23.8988 10.0883 24.0101 9.42837 24.2339 8.89966C24.4571 8.37156 24.7166 7.93964 25.0112 7.60391C25.3058 7.26878 25.5448 7.00927 25.7275 6.82658L25.4226 6.27791C24.8328 6.27791 24.3658 6.00872 24.0204 5.47034C23.6744 4.93196 23.502 4.30707 23.502 3.59568L23.5026 3.59689ZM26.7946 19.4169C26.7946 18.5022 27.0638 17.7763 27.6021 17.2373C28.1405 16.699 28.8979 16.4298 29.873 16.4298H42.5535C43.8335 16.4298 44.7832 16.7601 45.4033 17.4206C46.0227 18.0812 46.333 19.011 46.333 20.2099C46.333 20.9413 46.3179 21.5613 46.2871 22.0695C46.2568 22.5776 46.1903 23.2176 46.0886 23.9901C45.987 24.8636 45.6973 25.5448 45.22 26.0323C44.7421 26.5199 43.9956 26.7335 42.9793 26.6724C41.8614 26.6312 41.1246 26.3221 40.7695 25.7426C40.4138 25.1637 40.2463 24.5188 40.2668 23.8068C40.2868 23.3398 40.1955 22.9993 39.9922 22.7857C39.789 22.5722 39.4133 22.4657 38.8646 22.4657H29.9027C28.907 22.4657 28.1393 22.1868 27.6015 21.6273C27.0631 21.0683 26.794 20.3315 26.794 19.4175L26.7946 19.4169ZM38.4999 15.6071C37.7685 15.6071 37.1739 15.399 36.7165 14.9822C36.2592 14.566 36.0306 14.0427 36.0306 13.4124V2.83529C36.0306 2.18499 36.2489 1.65205 36.6857 1.23526C37.1224 0.819071 37.7268 0.610372 38.4993 0.610372C39.21 0.610372 39.7744 0.819071 40.1912 1.23526C40.6074 1.65205 40.8161 2.20616 40.8161 2.89638V6.73705H41.1821C41.4458 6.73705 41.5783 6.61486 41.5783 6.37107V2.71309C41.5783 2.02227 41.8015 1.45848 42.2492 1.02112C42.6956 0.58436 43.3163 0.365982 44.1087 0.365982C44.9012 0.365982 45.4801 0.58436 45.9072 1.02112C46.3336 1.45848 46.5472 2.03195 46.5472 2.74334V13.6253C46.5472 14.2756 46.3185 14.8195 45.8612 15.2562C45.4039 15.6936 44.8195 15.9113 44.1087 15.9113C43.3568 15.9113 42.747 15.693 42.28 15.2562C41.8124 14.8195 41.5789 14.2762 41.5789 13.6253V8.65709H40.8167V13.4426C40.8167 14.073 40.6032 14.5908 40.1767 14.9973C39.7502 15.4038 39.1907 15.6071 38.5005 15.6071H38.4999Z" fill="white"/>
    <path d="M53.8008 11.4313C52.3375 11.4313 51.2353 11.081 50.4937 10.3799C49.7515 9.67882 49.3812 8.74904 49.3812 7.59061C49.3812 6.75763 49.5839 6.0414 49.991 5.44192C50.3975 4.84304 50.7629 4.46194 51.0883 4.29861V4.26836C50.6207 4.26836 50.2094 4.08568 49.8537 3.7197C49.498 3.35372 49.3201 2.88672 49.3201 2.31748C49.3201 1.74825 49.4925 1.24071 49.8386 0.854167C50.184 0.468224 50.6715 0.275253 51.3019 0.275253H65.9943C66.7256 0.275253 67.264 0.468829 67.61 0.854167C67.9555 1.24071 68.1285 1.72828 68.1285 2.31748C68.1285 2.90668 67.9555 3.35916 67.61 3.73482C67.264 4.11108 66.7263 4.29861 65.9943 4.29861H53.1003C52.5516 4.29861 52.3484 4.53272 52.4906 4.99972H66.451C66.9791 4.99972 67.2435 5.2435 67.2435 5.73107C67.2435 6.21864 66.9791 6.49328 66.451 6.49328H53.1608C53.283 6.69653 53.4246 6.8641 53.5873 6.99597C53.7494 7.12845 53.9938 7.19439 54.3186 7.19439H66.2677C67.9337 7.19439 68.7673 7.8955 68.7673 9.29771C68.7673 9.96857 68.564 10.4918 68.1575 10.8675C67.751 11.2438 67.1213 11.4313 66.2677 11.4313H60.5675V11.4615C60.5675 12.1524 60.9432 12.4978 61.6951 12.4978H69.4986C70.1489 12.4978 70.6825 12.7113 71.0987 13.1378C71.5148 13.5642 71.7235 14.1438 71.7235 14.8751C71.7235 15.6065 71.5148 16.1963 71.0987 16.6433C70.6819 17.0904 70.1483 17.3136 69.4986 17.3136H49.1066C48.4763 17.3136 47.9276 17.1 47.4606 16.6736C46.993 16.2471 46.7595 15.6476 46.7595 14.8751C46.7595 14.1026 46.993 13.514 47.4606 13.1069C47.9276 12.7004 48.5071 12.4972 49.1979 12.4972H57.2755V11.4301H53.8008V11.4313ZM49.2288 20.6975C49.2288 19.8645 49.4575 19.2294 49.9148 18.7926C50.3721 18.3559 51.0986 18.1375 52.0943 18.1375H65.1407C66.3397 18.1375 67.2441 18.3764 67.8538 18.8537C68.4636 19.3316 68.7782 19.9771 68.7987 20.7895C68.8393 21.4803 68.8393 22.029 68.7987 22.4355C68.7576 22.842 68.7171 23.3096 68.6765 23.8377C68.5749 24.8334 68.2851 25.5545 67.8079 26.0021C67.33 26.4492 66.6343 26.673 65.7197 26.673C64.9677 26.673 64.312 26.5054 63.7536 26.1703C63.1947 25.8352 62.9152 25.2913 62.9152 24.5394V24.1432C62.9152 23.8794 62.839 23.681 62.6866 23.5485C62.5341 23.4167 62.2546 23.3501 61.8481 23.3501H52.0937C51.098 23.3501 50.3715 23.1118 49.9142 22.6339C49.4569 22.1566 49.2282 21.5111 49.2282 20.6981L49.2288 20.6975Z" fill="white"/>
    <defs>
        <linearGradient id="paint0_linear_160_5918" x1="57.6167" y1="-9.41807" x2="15.2762" y2="32.923" gradientUnits="userSpaceOnUse">
            <stop stop-color="#B7C2CE"/>
            <stop offset="0.08" stop-color="#BCC7D2"/>
            <stop offset="0.39" stop-color="#D0D9E2"/>
            <stop offset="0.69" stop-color="#DCE4EB"/>
            <stop offset="1" stop-color="#E1E8EF"/>
        </linearGradient>
        <linearGradient id="paint1_linear_160_5918" x1="57.6167" y1="-9.41808" x2="15.2762" y2="32.923" gradientUnits="userSpaceOnUse">
            <stop stop-color="#B7C2CE"/>
            <stop offset="0.08" stop-color="#BCC7D2"/>
            <stop offset="0.39" stop-color="#D0D9E2"/>
            <stop offset="0.69" stop-color="#DCE4EB"/>
            <stop offset="1" stop-color="#E1E8EF"/>
        </linearGradient>
        <linearGradient id="paint2_linear_160_5918" x1="57.6167" y1="-9.41808" x2="15.2762" y2="32.923" gradientUnits="userSpaceOnUse">
            <stop stop-color="#B7C2CE"/>
            <stop offset="0.08" stop-color="#BCC7D2"/>
            <stop offset="0.39" stop-color="#D0D9E2"/>
            <stop offset="0.69" stop-color="#DCE4EB"/>
            <stop offset="1" stop-color="#E1E8EF"/>
        </linearGradient>
    </defs>
</svg>
