<svg width="32" height="32" viewBox="0 0 32 32" fill="none" xmlns="http://www.w3.org/2000/svg">
<mask id="mask0_305_450" style="mask-type:luminance" maskUnits="userSpaceOnUse" x="0" y="0" width="32" height="32">
<path d="M0 0H32V32H0V0Z" fill="white"/>
</mask>
<g mask="url(#mask0_305_450)">
<path d="M24.0005 20.001C24.0003 22.2097 22.2092 24.0008 20.0005 24.001H6.6665C4.45781 24.0008 2.66668 22.2097 2.6665 20.001V6.66699C2.66668 4.4583 4.45781 2.66717 6.6665 2.66699H20.0005C22.1972 2.66717 24.0003 4.47029 24.0005 6.66699V20.001ZM26.6665 6.66699C26.6663 2.99754 23.6699 0.00115349 20.0005 0.000976562H6.6665C2.98505 0.00115259 0.000663922 2.98554 0.000488281 6.66699V20.001C0.000664312 23.6824 2.98505 26.6668 6.6665 26.667H20.0005C23.6819 26.6668 26.6663 23.6824 26.6665 20.001V6.66699Z" fill="black"/>
<path d="M29.333 8V25.334C29.3328 27.5428 27.5419 29.334 25.333 29.334H8C7.26362 29.334 6.66699 29.9306 6.66699 30.667C6.66699 31.4034 7.26362 32 8 32H25.333C29.0146 32 31.9998 29.0155 32 25.334V8C31.9998 7.26388 31.4031 6.66717 30.667 6.66699C29.9307 6.66699 29.3332 7.26377 29.333 8Z" fill="black"/>
</g>
</svg>
