<svg fill="none" height="60" viewBox="0 0 60 60" width="60" xmlns="http://www.w3.org/2000/svg" xmlns:xlink="http://www.w3.org/1999/xlink"><linearGradient id="paint0_linear_280_424" gradientUnits="userSpaceOnUse" x1="25.401" x2="25.401" y1="0" y2="50.788"><stop offset="0" stop-color="#5e5e5e"/><stop offset="1" stop-color="#303030"/></linearGradient><linearGradient id="paint1_linear_280_424" gradientUnits="userSpaceOnUse" x1="45.091" x2="45.091" y1="32.328" y2="60"><stop offset="0" stop-color="#ef7585"/><stop offset="1" stop-color="#dc4459"/></linearGradient><linearGradient id="paint2_linear_280_424" gradientUnits="userSpaceOnUse" x1="44.55" x2="44.55" y1="52.999" y2="55.305"><stop offset="0" stop-color="#eeefef"/><stop offset="1" stop-color="#dae0e0"/></linearGradient><rect fill="#474747" height="50.788" rx="6.8" width="50.801"/><rect fill="url(#paint0_linear_280_424)" height="50.788" rx="6.8" width="50.801"/><g fill="#7d7d7d" fill-opacity=".5"><rect height="2.539" rx="1.27" width="17.781" x="5.08" y="22.008"/><rect height="2.539" rx="1.27" width="17.781" x="5.08" y="28.78"/><rect height="2.539" rx="1.27" width="8.467" x="5.08" y="35.552"/><path d="m6.8 0c-3.75554 0-6.8 3.04447-6.8 6.8v7.7109h50.8013v-7.7109c0-3.75554-3.0445-6.8-6.8-6.8z"/></g><ellipse cx="7.257" cy="7.256" fill="#e94a4a" rx="2.074" ry="2.073"/><ellipse cx="14.393" cy="7.256" fill="#ffbc7d" rx="2.074" ry="2.073"/><ellipse cx="21.528" cy="7.256" fill="#4fd8af" rx="2.074" ry="2.073"/><path d="m42.4396 33.7488c1.0309-1.8949 3.9731-1.8949 5.0039 0l12.2576 22.5307c.9299 1.7094-.4225 3.7206-2.502 3.7206h-24.5151c-2.0794 0-3.4319-2.0112-2.502-3.7206z" fill="#d9d9d9"/><path d="m42.4396 33.7488c1.0309-1.8949 3.9731-1.8949 5.0039 0l12.2576 22.5307c.9299 1.7094-.4225 3.7206-2.502 3.7206h-24.5151c-2.0794 0-3.4319-2.0112-2.502-3.7206z" fill="url(#paint1_linear_280_424)"/><path d="m43.4414 43.0774c-.0785-.866.6652-1.6086 1.6109-1.6086.9458 0 1.6895.7426 1.611 1.6086l-.7955 8.7709c-.0353.3897-.3899.6894-.8155.6894-.4255 0-.7801-.2997-.8154-.6894z" fill="#ab293c" fill-opacity=".6"/><path d="m46.3072 54.6132c0 .6368-.5618 1.153-1.2549 1.153-.693 0-1.2548-.5162-1.2548-1.153s.5618-1.1531 1.2548-1.1531c.6931 0 1.2549.5163 1.2549 1.1531z" fill="#ab293c" fill-opacity=".6"/><path d="m42.9394 42.616c-.0785-.866.6652-1.6087 1.611-1.6087.9457 0 1.6894.7427 1.6109 1.6087l-.7955 8.7709c-.0353.3897-.3899.6894-.8154.6894-.4256 0-.7801-.2997-.8155-.6894z" fill="url(#paint2_linear_280_424)"/><path d="m45.8052 54.1517c0 .6368-.5618 1.153-1.2548 1.153-.6931 0-1.2549-.5162-1.2549-1.153s.5618-1.153 1.2549-1.153c.693 0 1.2548.5162 1.2548 1.153z" fill="url(#paint2_linear_280_424)"/></svg>