<svg width="32" height="32" viewBox="0 0 32 32" fill="black" xmlns="http://www.w3.org/2000/svg">
<g clip-path="url(#clip0_305_460)">
<path d="M2.66667 28V4C2.66667 3.64638 2.80714 3.30724 3.05719 3.05719C3.30724 2.80714 3.64638 2.66667 4 2.66667H10.6667V0H4C2.93913 0 1.92172 0.421427 1.17157 1.17157C0.421427 1.92172 0 2.93913 0 4L0 28C0 29.0609 0.421427 30.0783 1.17157 30.8284C1.92172 31.5786 2.93913 32 4 32H10.6667V29.3333H4C3.64638 29.3333 3.30724 29.1929 3.05719 28.9428C2.80714 28.6928 2.66667 28.3536 2.66667 28Z" />
<path d="M30.8305 13.1723L24.7158 7.05762L22.8305 8.94295L28.5158 14.6283L6.6665 14.667V17.3336L28.5905 17.295L22.8278 23.0576L24.7132 24.943L30.8278 18.8283C31.5781 18.0785 31.9998 17.0615 32.0003 16.0008C32.0008 14.9402 31.58 13.9227 30.8305 13.1723Z" />
</g>
<defs>
<clipPath id="clip0_305_460">
<rect width="32" height="32" />
</clipPath>
</defs>
</svg>
