<svg xmlns="http://www.w3.org/2000/svg" width="30" height="30" viewBox="0 0 30 30" fill="white">
    <path d="M27 14C27 19.936 22.668 24.878 17 25.832V28C17 29.104 16.106 30 15 30C13.894 30 13 29.104 13 28V25.832C7.332 24.878 3 19.936 3 14C3 12.896 3.894 12 5 12C6.106 12 7 12.896 7 14C7 18.412 10.588 22 15 22C19.412 22 23 18.412 23 14C23 12.896 23.894 12 25 12C26.106 12 27 12.896 27 14ZM11 14V4C11 1.79 12.79 0 15 0C17.21 0 19 1.79 19 4V14C19 16.21 17.21 18 15 18C12.79 18 11 16.21 11 14Z" />
</svg>
