<svg xmlns="http://www.w3.org/2000/svg" width="24" height="24" viewBox="0 0 24 24" fill="black">
    <path d="M23.6802 16.73L21.0902 19.14C20.5502 19.68 19.7902 19.99 18.9902 19.99C18.1902 19.99 17.4402 19.68 16.8702 19.11L14.3102 16.72C13.9102 16.34 13.8802 15.71 14.2602 15.31C14.6402 14.91 15.2702 14.89 15.6702 15.26L17.9902 17.42V9C17.9902 7.35 16.6402 6 14.9902 6H10.9902C10.4402 6 9.99022 5.55 9.99022 5C9.99022 4.45 10.4402 4 10.9902 4H14.9902C17.7502 4 19.9902 6.24 19.9902 9V17.43L22.3102 15.27C22.7102 14.89 23.3502 14.92 23.7202 15.32C24.1002 15.72 24.0702 16.36 23.6702 16.73H23.6802ZM13.0002 18H9.00022C7.35022 18 6.00022 16.65 6.00022 15V6.57L8.32022 8.73C8.51022 8.91 8.76022 9 9.00022 9C9.27022 9 9.53022 8.89 9.73022 8.68C10.1102 8.28 10.0802 7.64 9.68022 7.27L7.12022 4.88C5.99022 3.75 3.99022 3.77 2.90022 4.86L0.320222 7.27C-0.0797783 7.65 -0.109778 8.28 0.270222 8.68C0.650222 9.09 1.28022 9.11 1.68022 8.73L4.00022 6.57V15C4.00022 17.76 6.24022 20 9.00022 20H13.0002C13.5502 20 14.0002 19.55 14.0002 19C14.0002 18.45 13.5502 18 13.0002 18Z" />
</svg>
