<svg width="32" height="27" viewBox="0 0 32 27" fill="white" xmlns="http://www.w3.org/2000/svg">
<path d="M6.66699 0C2.99099 0 0 2.99099 0 6.66699V20C0 23.676 2.99099 26.667 6.66699 26.667H25.333C29.009 26.667 32 23.676 32 20V6.66699C32 2.99099 29.009 0 25.333 0H6.66699ZM25.333 2.66699C27.5383 2.66699 29.333 4.46166 29.333 6.66699V20C29.333 22.2053 27.5383 24 25.333 24H20V2.66699H25.333ZM17.333 2.66699V24H6.66699C4.46166 24 2.66699 22.2053 2.66699 20V6.66699C2.66699 4.46166 4.46166 2.66699 6.66699 2.66699H17.333Z" />
</svg>
