<svg width="32" height="32" viewBox="0 0 32 32" fill="black" xmlns="http://www.w3.org/2000/svg">
<g clip-path="url(#clip0_313_1511)">
<path d="M12 16C16.412 16 20 12.412 20 8C20 3.588 16.412 0 12 0C7.588 0 4 3.588 4 8C4 12.412 7.588 16 12 16ZM12 2.66667C14.9413 2.66667 17.3333 5.05867 17.3333 8C17.3333 10.9413 14.9413 13.3333 12 13.3333C9.05867 13.3333 6.66667 10.9413 6.66667 8C6.66667 5.05867 9.05867 2.66667 12 2.66667ZM30.8293 15.8387C29.3173 14.3267 26.6827 14.3267 25.172 15.8387L14.6667 26.3427V32H20.324L30.828 21.496C31.584 20.74 32 19.736 32 18.6667C32 17.5973 31.584 16.5933 30.8293 15.8387ZM28.9427 19.6093L19.22 29.3333H17.3333V27.4467L27.0573 17.724C27.56 17.22 28.4387 17.22 28.9427 17.724C29.1947 17.9747 29.3333 18.3093 29.3333 18.6667C29.3333 19.024 29.1947 19.3573 28.9427 19.6093ZM15.9053 21.3333H6.66667C4.46133 21.3333 2.66667 23.128 2.66667 25.3333V32H0V25.3333C0 21.6573 2.99067 18.6667 6.66667 18.6667H17.3333C17.7187 18.6667 18.0907 18.7173 18.4587 18.78L15.9053 21.3333Z" />
</g>
<defs>
<clipPath id="clip0_313_1511">
<rect width="32" height="32" />
</clipPath>
</defs>
</svg>
